<?xml version="1.0" encoding="utf-8"?>
<!-- Generator: Adobe Illustrator 23.0.1, SVG Export Plug-In . SVG Version: 6.00 Build 0)  -->
<svg version="1.1" id="Layer_1" xmlns="http://www.w3.org/2000/svg" xmlns:xlink="http://www.w3.org/1999/xlink" x="0px" y="0px"
	 viewBox="70 55 1260 190" style="enable-background:new 70 55 1260 190;" xml:space="preserve">
<style type="text/css">
	.st0{fill:#F9E7D4;}
</style>
<g>
	<g>
		<g id="earth.psd_1_">
			<defs>
				<rect id="SVGID_1_" x="220.45" y="25.92" width="248.18" height="248.18"/>
			</defs>
			<clipPath id="SVGID_2_">
				<use xlink:href="#SVGID_1_"  style="overflow:visible;"/>
			</clipPath>
			<g style="clip-path:url(#SVGID_2_);">
				
					<image style="overflow:visible;" width="1466" height="1466" id="Layer_46" xlink:href="{{ theme.path }}/images/logos/svg_icons/94B181808FF52E9.png"  transform="matrix(-0.1241 0 0 0.1241 434.7567 59.0507)">
				</image>
			</g>
		</g>
	</g>
	<g>
		<g>
			<g>
				<g>
					<g>
						<g>
							<path class="st0" d="M1309.84,162.07c-0.78,8.05-2.24,16.22-6.2,23.27c-7.49,13.32-22.77,20.51-37.83,23.15
								c-10.51,1.85-21.51,1.87-31.68-1.39c-13.66-4.38-25.12-14.6-32.05-27.16c-14.52-26.32-9.3-63.33,17.97-78.97
								c8.62-4.94,18.37-7.67,28.2-9.05c9.91-1.39,20.16-1.44,29.77,1.36c9.61,2.8,18.56,8.66,23.78,17.21
								c0.91,1.49,1.73,3.13,1.74,4.88c0.01,1.75-1.01,3.61-2.7,4.06c-1.71,0.45-3.49-0.65-4.53-2.07c-1.05-1.42-1.58-3.15-2.42-4.7
								c-3.2-5.99-10.2-8.79-16.79-10.4c-11.88-2.91-24.48-3.49-36.33-0.46c-11.85,3.03-22.91,9.84-30,19.81
								c-9.68,13.6-11.09,32.11-5.61,47.89c2.81,8.09,7.4,15.69,13.92,21.24c10.46,8.9,25.02,11.76,38.7,10.59
								c15.3-1.31,31.16-8.22,38.5-21.71c2.92-5.35,4.32-11.4,5.28-17.42c-10.1,0.68-20.22,1.16-30.34,1.44
								c-2.29,0.06-4.99-0.08-6.28-1.97c-1.39-2.04-0.13-5.01,1.95-6.32c2.09-1.31,4.69-1.41,7.15-1.47
								c14.05-0.35,28.1-0.7,42.15-1.05c2.92-0.07,6.06-0.08,8.44,1.62c1.92,1.37,3.1,4.7,1.47,6.72
								C1324.47,163.19,1309.78,162.76,1309.84,162.07z"/>
							<path class="st0" d="M1162.59,192.8c-0.61-6.4-1.21-12.81-1.82-19.21c-0.45-4.72-1.13-9.42-1.32-14.15
								c-0.23-5.66,0.12-11.34-0.09-17c-0.32-8.46-1.27-16.92-1.27-25.37c0-6.6,1.06-13.21,1.62-19.81c0.18-2.1,0.26-4.21,0.39-6.31
								c0.7-0.12,1.04-0.22,1.39-0.23c5.51-0.08,7.35,1.89,6.52,7.16c-1.35,8.58-0.56,17.12-0.08,25.72
								c0.49,8.63-0.24,17.33,0.22,25.97c0.56,10.53,1.89,21.02,2.72,31.54c0.45,5.71,0.61,11.45,0.76,17.17
								c0.05,2,0.16,4.21-0.6,5.97c-2.27,5.25-6.37,5.82-10.25,1.78c-2.33-2.42-5.2-4.45-7.01-7.2c-3.76-5.69-6.73-11.9-10.51-17.57
								c-3.27-4.9-7.46-9.19-10.8-14.05c-3.66-5.32-6.74-11.04-10.19-16.51c-5.08-8.06-10.19-16.11-15.41-24.08
								c-3.8-5.81-7.79-11.49-11.72-17.22c-0.45-0.65-1.04-1.21-2.07-2.4c0.52,5.11,0.94,9.48,1.42,13.83
								c0.43,3.88,1.07,7.74,1.36,11.62c0.58,7.83,1.2,15.67,1.41,23.52c0.16,5.98-0.45,11.98-0.42,17.98
								c0.05,10.19,0.15,20.38,0.66,30.55c0.11,2.24,0.03,4.17-1.99,4.22c-2.02,0.05-4.15-1.24-6.06-2.26
								c-0.57-0.3-0.69-1.7-0.76-2.62c-0.89-11.84-0.12-23.68,0.05-35.53c0.07-5.04-0.52-10.09-0.77-15.13
								c-0.28-5.61-0.32-11.24-0.8-16.83c-0.79-9.2-1.85-18.37-2.79-27.56c-0.29-2.83-0.37-5.7-0.82-8.51
								c-0.67-4.24,2.22-4.92,5.22-6.13c3.21-1.3,4.72,0.03,6.43,2.43c8.27,11.62,16.88,23,24.95,34.75
								c6.86,9.99,12.96,20.49,19.74,30.54c6.25,9.27,12.97,18.23,19.46,27.35c0.88,1.23,1.58,2.58,2.37,3.88
								C1162.02,193.01,1162.31,192.9,1162.59,192.8z"/>
							<path class="st0" d="M506.97,166.24c3.8,4.68,7.51,9.26,11.22,13.83c6.27,7.72,12.57,15.4,18.77,23.17
								c1.51,1.9,0.48,5.64-1.76,6.97c-2.58,1.54-3.85,0.4-5.55-1.93c-4.65-6.38-9.8-12.39-14.78-18.52
								c-4.44-5.47-9.01-10.85-13.34-16.4c-2.42-3.1-4.2-5.79-9.32-4.92c-7.54,1.28-15.34,1.06-22.71,1.47
								c0.28,11.88,0.44,23.29,0.88,34.7c0.14,3.71-2.06,3.75-4.63,3.99c-3.1,0.29-4.17-1.18-4.11-4.05
								c0.07-3.73,0.16-7.46-0.01-11.18c-0.66-14.41-0.89-28.87-2.28-43.21c-1.65-16.92-2.21-33.84-2.03-50.81
								c0.01-1.08,0.17-2.23-0.15-3.23c-1.37-4.35,0.76-7.5,5.37-7.57c5.55-0.08,11.1-0.02,16.66-0.02c5.67,0,11.35-0.13,17.02,0.03
								c7.61,0.22,15.07,1.53,21.84,5.11c5.97,3.16,10.36,8,13.61,14.02c3.12,5.78,3.76,11.97,4.41,18.32
								c1.21,11.87-2.83,22.05-10,30.96c-2.41,2.99-6.59,4.72-10.21,6.53C513.32,164.8,510.34,165.25,506.97,166.24z M466.56,97.89
								c-0.17,2.44-0.6,5.22-0.52,7.98c0.39,12.29,0.91,24.58,1.41,36.87c0.2,5,0.39,10.01,0.77,15c0.13,1.66,0.2,3.01,3.19,2.61
								c10.95-1.46,22.04-1.86,32.98-3.4c5.73-0.81,11.81-2.14,15.88-6.92c6.24-7.32,9.92-15.43,9.44-25.62
								c-0.57-12.05-8.51-21.07-18.39-24.32c-6.2-2.04-12.55-2.3-18.99-2.22C483.62,97.97,474.92,97.89,466.56,97.89z"/>
							<path class="st0" d="M773.24,155.67c0.81,15.57,1.56,29.95,2.33,44.76c4.98,0,9.9-0.15,14.8,0.03
								c9.67,0.35,19.32,0.86,28.98,1.36c2.35,0.12,4.69,0.55,7.04,0.74c2.46,0.2,3.5,1.67,3.04,3.87c-0.4,1.91-0.38,4.42-3.69,4.13
								c-6.75-0.6-13.51-1.04-20.28-1.4c-5.3-0.28-10.63,0.38-15.96,0.15c-5.97-0.25-11.94-0.56-17.9-1.06
								c-4.3-0.37-5.64-2.79-5.67-7.22c-0.02-2.71-0.54-5.42-0.59-8.13c-0.06-3.33,0.12-6.66,0.21-9.99
								c0.13-4.54,0.36-9.07,0.36-13.61c0-1.99-0.56-3.98-0.65-5.98c-0.3-6.44-0.4-12.9-0.77-19.33c-0.31-5.26-1.16-10.5-1.31-15.76
								c-0.24-8.54,0.01-17.09-0.16-25.63c-0.06-3.05-0.57-6.11-1.14-9.12c-0.59-3.16,0.52-4.85,3.63-4.93
								c9.69-0.25,19.39-0.56,29.08-0.7c8.08-0.12,16.16-0.03,24.25-0.02c4.25,0,6.12,1.99,5.48,6.23c-0.14,0.9-1.44,2.27-2.27,2.32
								c-6.7,0.42-13.41,0.75-20.13,0.76c-5.72,0.01-11.43-0.56-17.15-0.61c-4.16-0.04-8.32,0.35-12.82,0.56
								c-0.09,1.23-0.23,2.25-0.22,3.27c0.22,12.7,0.44,25.4,0.74,38.1c0.06,2.36,0.21,4.78,0.82,7.04
								c0.25,0.93,1.86,2.16,2.81,2.12c6.53-0.26,13.04-0.91,19.57-1.26c3.6-0.19,7.22-0.23,10.82-0.04
								c6.98,0.36,13.96,0.76,20.9,1.55c1.43,0.16,3.65,2,3.76,3.23c0.18,2.06-0.03,5.02-3.33,5.23c-2.02,0.13-4.05-0.15-6.08-0.18
								c-2.09-0.03-4.19,0.09-6.28,0.01c-2.47-0.09-4.93-0.46-7.4-0.47C796.64,155.64,785.16,155.67,773.24,155.67z"/>
							<path class="st0" d="M145.13,119.18c-0.58,1.75-6.43,0.46-7.75-2.11c-0.55-1.08-0.33-2.38-0.28-3.59
								c0.16-4.18-2.07-8.24-5.31-10.9c-3.23-2.66-7.36-4.04-11.51-4.61c-13.58-1.84-27.93,5.46-34.45,17.51
								c-2.43,4.49-3.8,10.01-1.76,14.69c2.13,4.89,7.37,7.61,12.43,9.3c8.13,2.71,16.74,3.75,24.87,6.42
								c8.06,2.65,15.71,7.02,21.24,13.46c5.53,6.44,8.74,15.09,7.62,23.5c-0.93,6.99-4.79,13.43-10.07,18.11
								c-5.28,4.68-11.92,7.67-18.79,9.27c-8.9,2.07-18.42,1.84-26.98-1.36c-8.55-3.21-16.05-9.5-20.05-17.71
								c-1.81-3.72-2.91-7.85-2.74-11.99c0.02-0.5,0.07-1.04,0.41-1.41c0.33-0.36,0.85-0.48,1.34-0.49c2.73-0.11,5.07,2.1,6.27,4.55
								s1.6,5.22,2.53,7.79c2.5,6.86,8.87,11.89,15.91,13.88s14.62,1.2,21.58-1.02c6.01-1.92,11.78-4.98,16-9.66
								c4.22-4.68,6.72-11.14,5.75-17.37c-1.22-7.86-7.65-14.05-14.81-17.51s-15.14-4.73-22.86-6.65
								c-7.72-1.91-15.58-4.68-21.14-10.36c-4.94-5.04-7.64-12.18-7.36-19.24c0.65-16.74,17.31-28.73,32.68-31.19
								c9.05-1.45,18.76,0.45,26.1,5.96C141.34,101.94,147.02,113.53,145.13,119.18z"/>
							<path class="st0" d="M604.8,151.13c4-8.34,7.67-16.32,11.63-24.14c3.29-6.51,7.19-12.72,10.27-19.32
								c1.68-3.59,2.06-7.76,3.34-11.57c0.63-1.87,1.77-3.66,3.05-5.18c0.46-0.55,2.44-0.65,2.96-0.16c1.5,1.45,4.02,3.76,3.65,4.92
								c-2.53,7.8-5.29,15.59-8.78,23.01c-4.42,9.41-9.6,18.46-14.46,27.67c-4.87,9.24-9.86,18.43-14.59,27.75
								c-4.73,9.32-9.23,18.76-13.76,28.18c-0.95,1.97-1.59,4.08-2.32,6.15c-0.94,2.64-2.93,1.79-4.66,1.33
								c-2.12-0.56-4.03-1.73-3.51-4.25c0.39-1.89,1.42-3.67,2.3-5.43c6.19-12.44,12.41-24.86,18.62-37.29
								c0.9-1.8,0.47-3.82-0.36-5.56c-0.35-0.72-0.77-1.4-1.2-2.08c-3.05-4.79-6.66-9.26-9.99-13.88
								c-5.44-7.54-10.83-15.12-16.23-22.7c-5.33-7.48-10.58-15.01-15.99-22.43c-1.56-2.14-1.68-3.99,0.58-5.32
								c2.15-1.27,4.44-2.94,6.68,0.42c7.06,10.57,14.12,21.15,21.54,31.47c5.58,7.76,11.74,15.1,17.57,22.68
								C602.38,147.01,603.36,148.86,604.8,151.13z"/>
							<path class="st0" d="M694.49,116.4c-0.06-4.46-0.27-8.93-0.73-13.36c-0.32-3.09-3.5-3.36-5.46-3.51
								c-5.77-0.44-11.6,0.02-17.39-0.2c-3.6-0.14-7.34-0.39-10.68-1.56c-1.46-0.51-2.86-3.47-2.84-5.3
								c0.02-2.19,2.02-3.58,4.67-3.21c8.02,1.13,16.02,1.31,24.14,0.87c10.79-0.58,21.64-0.22,32.46-0.09
								c3.22,0.04,6.64,0.1,9.55,1.23c1.7,0.66,3.47,3.42,3.57,5.32c0.12,2.23-1.91,3.82-4.78,3.53c-5.92-0.6-11.85-1.13-17.79-1.39
								c-2.31-0.1-4.66,0.6-7.55,1.02c0.28,3.13,0.55,6.39,0.86,9.64c0.19,2,0.59,3.99,0.64,5.99c0.29,10.78,0.47,21.55,0.76,32.33
								c0.16,6.09,0.73,12.18,0.61,18.26c-0.1,5.56-1.39,11.13-1.23,16.67c0.26,8.64,1.37,17.26,1.92,25.9
								c0.07,1.09-0.82,2.89-1.71,3.25c-1.44,0.58-3.7,0.87-4.79,0.11c-1.35-0.94-2.37-3-2.64-4.71c-0.58-3.75-0.75-7.58-0.81-11.38
								c-0.12-6.88-0.13-13.76,0-20.64c0.11-6.21,0.76-12.42,0.62-18.62c-0.21-9.65-0.89-19.28-1.35-28.92
								c-0.03-0.59,0.14-1.2,0.09-1.79C694.56,124.75,694.52,118.5,694.49,116.4z"/>
							<path class="st0" d="M206.5,98.68c0.39,4.16,0.7,7.2,0.95,10.25c0.27,3.2,0.6,6.39,0.7,9.6c0.3,9.82,0.47,19.64,0.76,29.45
								c0.17,5.97,0.76,11.94,0.62,17.9c-0.17,7.73-1.3,15.46-1.23,23.18c0.06,6.35,1.15,12.71,2.02,19.04
								c0.33,2.38-0.8,3.72-2.58,4.36c-2.54,0.92-4.92,0.05-5.9-2.54c-0.78-2.05-1.09-4.35-1.18-6.56
								c-0.27-6.49-0.34-12.99-0.47-19.49c-0.01-0.48,0.04-0.96,0.05-1.44c0.24-11.14,0.7-22.28,0.64-33.42c-0.04-7-0.88-14-1.32-21
								c-0.07-1.18,0.18-2.24-0.02-3.43c-0.47-2.83-0.05-5.67-0.08-8.52c-0.05-4.34-0.18-8.71-0.75-13
								c-0.45-3.32-4.02-3.83-6.09-3.51c-7.76,1.22-15.22-0.83-22.81-1.24c-1.85-0.1-4.62-3.55-4.11-5.38
								c0.58-2.11,1.69-4.23,4.45-3.64c11.38,2.44,22.84,0.18,34.24,0.69c9.39,0.42,18.78,0.81,28.17,1.24
								c2.1,0.1,4.89,3.28,4.39,5.23c-0.65,2.57-2.25,3.9-5.23,3.68C223.58,99.53,215.43,99.18,206.5,98.68z"/>
							<path class="st0" d="M879.81,200.42c6.27,0,12.61-0.09,18.94,0.03c5.49,0.1,11,0.82,16.47,0.53
								c2.82-0.15,5.65-1.21,7.11,1.86c0.74,1.55,0.46,3.76,0.08,5.56c-0.14,0.65-1.93,1.36-2.95,1.34
								c-6.81-0.11-13.61-0.58-20.42-0.59c-6.2-0.01-12.41,0.43-18.61,0.65c-1.32,0.05-2.66,0.11-3.96-0.02
								c-5.52-0.56-5.85-4.35-5.85-9.94c0-3.46-0.01-6.78-0.02-10.31c-0.01-3.96-0.04-7.92-0.18-11.88
								c-0.15-4.38-0.94-8.73-1.15-13.1c-0.37-7.52-0.44-15.06-0.78-22.58c-0.39-8.45-0.99-16.88-1.39-25.33
								c-0.16-3.5,0.06-7.02-0.06-10.52c-0.14-4.28-0.45-8.56-0.71-12.84c-0.1-1.7-0.88-3.81,1.91-3.96c2.54-0.14,5.6-0.76,6.6,2.58
								c0.67,2.24,0.8,4.7,0.86,7.07c0.31,11.99,0.42,23.99,0.78,35.99c0.36,11.69,0.85,23.38,1.44,35.07
								C878.44,180.25,879.18,190.48,879.81,200.42z"/>
							<path class="st0" d="M962.07,200.42c6.27,0,12.61-0.09,18.94,0.03c5.49,0.1,11,0.82,16.47,0.53
								c2.82-0.15,5.65-1.21,7.11,1.86c0.74,1.55,0.46,3.76,0.08,5.56c-0.14,0.65-1.93,1.36-2.95,1.34
								c-6.81-0.11-13.61-0.58-20.42-0.59c-6.2-0.01-12.41,0.43-18.61,0.65c-1.32,0.05-2.66,0.11-3.96-0.02
								c-5.52-0.56-5.85-4.35-5.85-9.94c0-3.46-0.01-6.78-0.02-10.31c-0.01-3.96-0.04-7.92-0.18-11.88
								c-0.15-4.38-0.94-8.73-1.15-13.1c-0.37-7.52-0.44-15.06-0.78-22.58c-0.39-8.45-0.99-16.88-1.39-25.33
								c-0.16-3.5,0.06-7.02-0.06-10.52c-0.14-4.28-0.45-8.56-0.71-12.84c-0.1-1.7-0.88-3.81,1.91-3.96c2.54-0.14,5.6-0.76,6.6,2.58
								c0.67,2.24,0.8,4.7,0.86,7.07c0.31,11.99,0.42,23.99,0.78,35.99c0.36,11.69,0.85,23.38,1.44,35.07
								C960.69,180.25,961.44,190.48,962.07,200.42z"/>
							<path class="st0" d="M1035.95,198.09c0-7.66-0.05-15.27,0.02-22.87c0.03-3.64,0.35-7.28,0.41-10.93
								c0.15-8.52,0.33-17.05,0.28-25.57c-0.03-5.57-0.52-11.13-0.65-16.69c-0.06-2.68,0.36-5.36,0.32-8.04
								c-0.09-6.42-0.39-12.83-0.49-19.24c-0.05-3,3.35-3.86,5.76-3.38c4.01,0.79,3.81,3.64,3.54,7.13
								c-1.08,13.54-0.37,27.62-0.49,41.23c-0.11,12.29-0.1,24.59-0.07,36.88c0.02,8.57,0.12,17.15,0.24,25.72
								c0.02,1.29,0.46,2.56,0.54,3.85c0.12,1.97,0.05,4.5-2.43,4.33c-1.89-0.13-4.61-1.51-5.28-3.06
								C1036.43,204.61,1036.45,201.25,1035.95,198.09z"/>
						</g>
					</g>
				</g>
			</g>
		</g>
	</g>
</g>
</svg>
